<svg width="20" height="20" viewBox="0 0 20 20" fill="none" xmlns="http://www.w3.org/2000/svg">
<g clip-path="url(#clip0)">
<path d="M10 4.039C6.17879 4.039 2.71351 6.12962 0.15649 9.52534C-0.0521632 9.80355 -0.0521632 10.1922 0.15649 10.4704C2.71351 13.8702 6.17879 15.9609 10 15.9609C13.8212 15.9609 17.2865 13.8702 19.8435 10.4745C20.0522 10.1963 20.0522 9.80764 19.8435 9.52943C17.2865 6.12962 13.8212 4.039 10 4.039ZM10.2741 14.1975C7.73755 14.3571 5.64284 12.2665 5.80239 9.72581C5.93331 7.6311 7.63118 5.93324 9.72589 5.80232C12.2625 5.64276 14.3572 7.73338 14.1976 10.274C14.0626 12.3647 12.3647 14.0625 10.2741 14.1975ZM10.1473 12.2583C8.78081 12.3442 7.65163 11.2191 7.74164 9.85264C7.81119 8.72346 8.72763 7.81112 9.85681 7.73747C11.2233 7.65156 12.3525 8.77665 12.2625 10.1431C12.1888 11.2764 11.2724 12.1887 10.1473 12.2583Z" fill="#8E8E93"/>
</g>
<defs>
<clipPath id="clip0">
<rect width="20" height="20" fill="white"/>
</clipPath>
</defs>
</svg>
