<svg width="20" height="20" viewBox="0 0 20 20" fill="none" xmlns="http://www.w3.org/2000/svg">
<g clip-path="url(#clip0)">
<path fill-rule="evenodd" clip-rule="evenodd" d="M13.6901 4.70991C12.5135 4.27235 11.2766 4.039 10 4.039C6.17879 4.039 2.71351 6.12962 0.15649 9.52534C-0.0521632 9.80355 -0.0521632 10.1922 0.15649 10.4704C1.32261 12.0209 2.67763 13.2991 4.16916 14.2309L6.33545 12.0646C5.94937 11.3811 5.74882 10.5788 5.80239 9.72581C5.93331 7.6311 7.63118 5.93324 9.72589 5.80232C10.5783 5.7487 11.3808 5.94918 12.0646 6.33545L13.6901 4.70991ZM10.5905 7.80955C10.3584 7.74757 10.1118 7.72144 9.85681 7.73747C8.72763 7.81112 7.81119 8.72346 7.74164 9.85264C7.72481 10.1081 7.7506 10.3552 7.81259 10.5874L10.5905 7.80955ZM10.0517 12.2623L12.2668 10.0473C12.266 10.0791 12.2646 10.111 12.2625 10.1431C12.1888 11.2764 11.2724 12.1887 10.1473 12.2583C10.1153 12.2603 10.0834 12.2616 10.0517 12.2623ZM8.41684 13.8972C8.98481 14.1284 9.61452 14.239 10.2741 14.1975C12.3647 14.0625 14.0626 12.3647 14.1976 10.274C14.2391 9.61403 14.1284 8.9844 13.8973 8.4167L16.2629 6.05115C17.5846 6.95244 18.791 8.13003 19.8435 9.52943C20.0522 9.80764 20.0522 10.1963 19.8435 10.4745C17.2865 13.8702 13.8212 15.9609 10 15.9609C8.91425 15.9609 7.85723 15.7921 6.84162 15.4724L8.41684 13.8972Z" fill="#8E8E93"/>
<rect x="17.3189" y="2.14741" width="1.27025" height="21.4555" rx="0.635123" transform="rotate(45 17.3189 2.14741)" fill="#8E8E93"/>
</g>
<defs>
<clipPath id="clip0">
<rect width="20" height="20" fill="white"/>
</clipPath>
</defs>
</svg>
